<?xml version="1.0" encoding="utf-8"?>
<!-- Generator: Adobe Illustrator 17.0.0, SVG Export Plug-In . SVG Version: 6.00 Build 0)  -->
<!DOCTYPE svg PUBLIC "-//W3C//DTD SVG 1.1//EN" "http://www.w3.org/Graphics/SVG/1.1/DTD/svg11.dtd">
<svg version="1.1" id="Layer_1" xmlns="http://www.w3.org/2000/svg" xmlns:xlink="http://www.w3.org/1999/xlink" x="0px" y="0px"
	 width="2394.429px" height="996.607px" viewBox="0 0 2394.429 996.607" enable-background="new 0 0 2394.429 996.607"
	 xml:space="preserve">
<g>
	<polygon fill="#E9BEBD" points="723.585,438.11 647.361,437.713 640.655,373.046 18.154,339.637 74.166,585.031 287.241,640.767 
		152.213,893.443 272.535,898.122 356.76,662.513 467.855,900.127 569.997,906.389 427.616,674.19 676.949,722.998 666.048,617.885 
		722.165,619.377 802.618,676.195 802.618,379.402 	"/>
	<g>
		<path fill="#E9BEBD" d="M174.272,339.637c0,0,157.087-10.369,157.087-162.776S219.577,21.779,198.596,20.442
			C177.614,19.106,46.597,48.517,47.266,185.55S145.949,332.478,174.272,339.637z"/>
		<path fill="#E9BEBD" d="M526.547,361.354c0,0,157.087-13.369,173.798-152.407C717.056,69.908,644.705,20.442,559.222,7.742
			S381.493,66.566,375.477,173.518S434.969,348.653,526.547,361.354z"/>
	</g>
</g>
<g>
	<path fill="#FFFFFF" d="M690.585,120.176c0,0-72.459-70.191-160.695-57.221S372.75,150.307,375.116,187.982
		s15.809,154.702,145.861,171.366C651.028,376.013,744.742,190.493,690.585,120.176z"/>
	<path fill="#FFFFFF" d="M47.263,189.488c0,0,50.887-121.585,141.533-118.02s148.259,54.44,145.013,108.55
		c-3.245,54.11-57.296,143.944-143.208,157.32C104.69,350.714,46.815,270.966,47.263,189.488z"/>
</g>
<path fill="#F15F5A" d="M549.943,269.107c0,0,78.981-30.344,70.856-63.503s-20.054-16.043-24.733-37.433s11.364-31.026,4.679-40.246
	c-6.685-9.22-30.749-24.594-58.824-8.551c-28.075,16.043-54.813,53.048-48.797,79.332S513.415,270.191,549.943,269.107z"/>
<path fill="#58C5C8" d="M250.476,188.574c0,0-30.749-14.387-18.717-45.805s-34.916-22.557-44.865-17.295
	s-63.425,42.696-32.676,104.194S257.612,230.214,250.476,188.574z"/>
<g>
	<polygon fill="#353535" points="734.436,628.067 665.303,628.067 665.303,606.676 713.046,606.676 713.046,449.005 
		646.733,449.005 646.733,427.614 734.436,427.614 	"/>
	<polygon fill="#353535" points="813.314,701.362 717.135,625.779 730.347,608.964 791.923,657.348 791.923,398.33 730.347,446.72 
		717.135,429.899 813.314,354.317 	"/>
	<path fill="#353535" d="M593.377,917.831l-127.988-9.055l-2.924-4.146c-0.778-1.102-78.165-111.653-120.131-235.233l20.255-6.883
		c36.457,107.36,100.32,204.698,114.52,225.65l72.339,5.118C468,777.753,414.388,677.689,413.829,676.639l18.873-10.069
		c0.585,1.097,59.383,110.812,147.305,232.721L593.377,917.831z"/>
	<path fill="#353535" d="M84.274,583.045L30.333,346.724l599.485,32.175l34.953,337.013L371.034,648.68l-7.12,20.313l325.213,74.44
		l-39.914-384.917L3.171,323.845l63.237,277.051l205.652,47.072c2.7-6.74,5.259-13.469,7.71-20.177L84.274,583.045z"/>
	<path fill="#353535" d="M363.045,606.817l-12.991,37.061l-7.12,20.312l-77.23,220.317l-94.659-3.024
		c24.336-37.315,84.452-133.587,122.1-228.69c2.67-6.745,5.223-13.48,7.646-20.192c1.836-5.085,3.619-10.16,5.292-15.205
		l-20.304-6.737c-1.883,5.678-3.914,11.398-6.009,17.13c-2.451,6.708-5.01,13.436-7.71,20.177
		c-47.01,117.363-128.456,236.215-129.362,237.527l-11.116,16.132l149.12,4.763l83.212-237.396l7.12-20.313l12.195-34.792
		L363.045,606.817z"/>
	<path fill="#353535" d="M532.213,367.923c-16.696,0-33.261-2.548-49.241-7.575c-91.766-28.874-141.253-132.372-110.31-230.713
		C397.402,50.995,468.663-3.927,545.964-3.927c16.696,0,33.261,2.551,49.241,7.578c91.771,28.874,141.258,132.372,110.321,230.713
		C680.782,313.003,609.514,367.923,532.213,367.923z M545.964,17.463c-68.057,0-130.931,48.766-152.898,118.59
		c-27.401,87.092,15.811,178.555,96.33,203.891c13.897,4.371,28.305,6.588,42.818,6.588c68.062,0,130.939-48.766,152.904-118.588
		c27.401-87.09-15.813-178.555-96.336-203.891C574.885,19.68,560.476,17.463,545.964,17.463z"/>
	<path fill="#353535" d="M178.821,348.857c-13.938,0-27.746-2.12-41.037-6.303c-38.862-12.225-69.963-40.739-87.573-80.282
		c-17.409-39.091-19.526-84.356-5.964-127.461C67.045,62.351,130.619,11.747,198.846,11.747c13.938,0,27.746,2.12,41.037,6.303
		c79.724,25.083,121.685,118.277,93.534,207.743C310.621,298.25,247.047,348.857,178.821,348.857z M198.846,33.138
		c-58.986,0-114.17,44.45-134.195,108.091c-11.996,38.125-10.183,78.021,5.1,112.339c15.082,33.864,41.522,58.221,74.452,68.582
		c11.212,3.528,22.861,5.316,34.619,5.316c58.986,0,114.17-44.45,134.192-108.091c24.61-78.217-11.076-159.377-79.549-180.921
		C222.252,34.926,210.604,33.138,198.846,33.138z"/>
	<path fill="#353535" d="M384.511,198.705l-20.816-4.919c0.298-1.264,31.365-126.528,161.734-140.198
		c120.379-12.591,179.459,67.334,181.919,70.746l-17.359,12.502c-2.167-2.977-54.761-73.266-162.325-61.973
		C412.213,86.967,384.775,197.588,384.511,198.705z"/>
	<path fill="#353535" d="M56.376,195.013l-20.461-6.243c1.342-4.408,34.021-108.159,135.409-125.591
		c101.514-17.437,163.943,68.083,166.549,71.731l-17.401,12.439c-0.559-0.773-57.456-78.246-145.524-63.088
		C86.733,99.43,56.669,194.06,56.376,195.013z"/>
</g>
<path fill="#712B2C" d="M550.789,278.092c-6.403,0-12.732-0.969-18.805-2.88c-19.338-6.084-34.483-20.973-42.64-41.922
	c-7.833-20.122-8.251-43.588-1.18-66.072c12.288-39.058,44.76-66.334,78.956-66.334c6.408,0,12.732,0.969,18.811,2.88
	c10.915,3.436,20.524,9.75,28.55,18.764l8.643,9.708l-11.191,6.614c-5.995,3.538-9.573,9.719-9.573,16.531
	c0,10.64,8.659,19.296,19.296,19.296c0.402-0.091,0.903-0.154,1.41-0.193l12.231-0.94l-0.736,12.244
	c-0.522,8.734-2.141,17.471-4.815,25.973C617.457,250.816,584.99,278.092,550.789,278.092z M567.119,122.275
	c-24.957,0-49.032,21.122-58.547,51.361c-5.619,17.86-5.369,36.29,0.705,51.894c5.755,14.782,16.1,25.179,29.13,29.279
	c3.995,1.256,8.157,1.893,12.382,1.893c24.957,0,49.032-21.122,58.547-51.361c1.086-3.447,1.953-6.935,2.606-10.445
	c-17.761-4.368-30.973-20.427-30.973-39.514c0-9.682,3.368-18.74,9.369-25.9c-3.363-2.327-6.982-4.102-10.831-5.314
	C575.511,122.912,571.344,122.275,567.119,122.275z"/>
<path fill="#224241" d="M191.652,263.914c0,0-0.003,0-0.005,0c-5.46,0-10.855-0.82-16.035-2.436
	c-16.607-5.173-29.626-17.871-36.658-35.752c-6.711-17.066-7.136-36.961-1.196-56.025c10.361-33.248,38.018-56.466,67.258-56.466
	c5.455,0,10.849,0.817,16.032,2.431c9.082,2.833,17.127,7.98,23.91,15.301l8.254,8.901l-9.873,7.066
	c-4.18,2.99-6.577,7.604-6.577,12.656c0,8.515,6.94,15.502,15.468,15.573l11.369,0.094l-0.789,11.343
	c-0.491,7.076-1.807,14.09-3.909,20.845C248.541,240.693,220.886,263.914,191.652,263.914z M205.016,134.625
	c-19.657,0-39.353,17.427-46.834,41.439c-4.496,14.429-4.256,29.287,0.676,41.833c4.614,11.727,12.823,19.952,23.116,23.158
	c3.12,0.974,6.374,1.467,9.674,1.467h0.003c19.651,0,39.345-17.427,46.826-41.442c0.676-2.165,1.246-4.368,1.705-6.596
	c-14.419-5.06-24.811-18.832-24.811-34.895c0-7.329,2.214-14.416,6.196-20.406c-2.178-1.311-4.478-2.345-6.886-3.097
	C211.564,135.116,208.311,134.625,205.016,134.625z"/>
<linearGradient id="SVGID_1_" gradientUnits="userSpaceOnUse" x1="812.8682" y1="529.781" x2="2394.4292" y2="529.781">
	<stop  offset="0" style="stop-color:#A7A9AC;stop-opacity:0.7"/>
	<stop  offset="1" style="stop-color:#808080;stop-opacity:0"/>
</linearGradient>
<polygon fill="url(#SVGID_1_)" points="812.868,355.56 812.868,527.84 812.868,700.12 2394.429,996.607 2394.429,527.84 
	2394.429,62.955 "/>
<g opacity="0.8">
	<path fill="#58C5C8" d="M2096.583,681.018c-0.215-11.423-1.128-22.786-2.486-34.118c-2.352-19.625-6.28-38.864-12.476-57.553
		c-5.563-16.778-12.861-32.64-22.521-47.227c-17.585-26.552-40.951-45.581-68.76-58.725c-22.558-10.662-46.361-15.951-70.905-17.775
		c-10.848-0.806-21.71-0.824-32.584-0.285c-13.649,0.676-27.182,2.243-40.589,5.038c-15.711,3.276-30.884,8.295-45.329,15.652
		c-20.46,10.421-37.998,24.773-52.094,43.672c-11.065,14.835-18.726,31.568-24.232,49.458c-7.064,22.952-10.274,46.624-11.516,70.63
		c-1.012,19.559-0.803,39.113,0.737,58.648c1.515,19.219,4.419,38.171,9.512,56.709c5.59,20.344,13.599,39.512,25.328,56.779
		c18.945,27.89,43.726,48.167,73.162,62.302c15.703,7.54,32.064,12.959,48.871,16.935c14.081,3.33,28.312,5.644,42.694,6.824
		c11.231,0.921,22.477,1.057,33.73,0.278c13.659-0.945,27.079-3.29,40.208-7.417c19.074-5.995,36.448-15.443,51.835-28.825
		c15.956-13.877,27.646-31.215,36.393-50.874c8.196-18.421,13.331-37.845,16.621-57.838c2.58-15.681,4.117-31.485,4.406-47.413
		c0.018-0.962,0.223-1.92,0.341-2.879c0-9.623,0-19.246,0-28.869C2096.81,683.103,2096.603,682.063,2096.583,681.018z
		 M1982.645,705.013c-0.462,17.623-1.765,35.164-5.191,52.463c-2.684,13.552-6.657,26.628-13.041,38.787
		c-4.529,8.627-10.078,16.399-17.357,22.675c-8.45,7.285-18.231,11.439-28.848,13.552c-11.645,2.317-23.305,1.931-34.97,0.095
		c-10.344-1.628-20.334-4.521-29.874-9.095c-18.593-8.915-31.698-23.557-40.309-42.967c-6.07-13.683-9.894-28.065-12.305-42.913
		c-3.208-19.751-4.175-39.678-4.209-59.678c-0.063-14.202,0.462-28.373,1.974-42.49c1.829-17.076,4.969-33.822,11.516-49.673
		c4.011-9.71,9.101-18.694,16.143-26.325c8.978-9.729,19.999-15.669,32.28-19.114c12.873-3.611,25.986-4.295,39.221-3.137
		c8.571,0.75,16.903,2.612,24.988,5.724c16.714,6.432,29.213,18.102,38.202,34.199c7.446,13.334,12.213,27.735,15.425,42.769
		c2.656,12.428,4.205,25.021,5.177,37.714C1982.676,673.384,1983.059,689.19,1982.645,705.013z"/>
	<path fill="#58C5C8" d="M1213.896,489.314c10.46,4.813,21.496,6.848,32.814,7.352c16.035,0.715,31.849-1.232,47.526-4.66
		c3.223-0.705,6.435-1.464,9.643-2.196c0-36.101,0-71.94,0-107.968c-11.999,1.496-23.813,2.968-35.849,4.468
		c0,24.219,0,48.156,0,72.184c-8.342,1.287-16.438,1.944-24.607,0.687c-12.048-1.854-21.109-8.16-26.642-19.786
		c-0.796-1.672-1.54-3.378-2.192-5.118c-3.594-9.588-4.861-19.668-5.514-29.863c-0.689-10.76-0.517-21.514,0.455-32.248
		c0.796-8.785,2.268-17.423,5.086-25.769c5.255-15.564,15.032-26.499,29.62-32.571c9.542-3.972,19.476-6.057,29.655-6.972
		c7.628-0.685,15.247-0.497,22.855,0.386c0.891,0.103,1.802,0.014,2.83,0.014c0-12.56,0-24.998,0-37.512
		c-0.51-0.146-0.939-0.346-1.38-0.382c-2.458-0.203-4.917-0.443-7.38-0.529c-7.72-0.27-15.399,0.231-23.054,1.354
		c-11.332,1.662-22.392,4.423-33.055,8.85c-16.121,6.692-29.882,16.802-40.488,31.434c-8.838,12.193-14.138,26.084-17.4,40.93
		c-2.079,9.465-3.271,19.065-3.831,28.763c-0.116,2.01-0.563,3.999-0.857,5.999c0,6.198,0,12.396,0,18.593
		c0.182,0.782,0.455,1.554,0.53,2.347c0.49,5.188,0.829,10.395,1.421,15.57c1.215,10.636,3.454,21.014,7.321,30.961
		C1187.789,470.062,1198.397,482.183,1213.896,489.314z"/>
	<path fill="#58C5C8" d="M1667.096,482.211c-22.02,1.153-43.765,2.292-65.714,3.441c0,79.889,0,159.423,0,238.958
		c-0.152,0.053-0.304,0.106-0.457,0.159c-0.357-0.661-0.737-1.309-1.068-1.983c-4.016-8.172-8.024-16.349-12.036-24.523
		c-22.652-46.15-45.304-92.3-67.955-138.451c-10.792-21.989-21.602-43.97-32.334-65.992c-0.846-1.736-1.764-2.211-3.579-2.078
		c-6.688,0.49-13.392,0.761-20.09,1.1c-10.547,0.534-21.095,1.054-31.642,1.591c-0.443,0.023-0.881,0.16-1.298,0.24
		c-0.095,0.336-0.216,0.566-0.216,0.795c-0.021,106.25-0.034,212.5-0.039,318.75c0,0.483,0.091,0.967,0.152,1.449
		c0.009,0.069,0.084,0.131,0.133,0.193c0.049,0.062,0.104,0.118,0.244,0.273c16.945,3.078,33.989,6.175,50.908,9.248
		c0.217-0.367,0.268-0.432,0.297-0.506c0.028-0.074,0.036-0.156,0.048-0.236c0.013-0.08,0.028-0.161,0.028-0.242
		c0.006-72.736,0.012-145.473,0.017-218.209c0-0.163-0.005-0.327,0.009-0.489c0.014-0.161,0.04-0.322,0.076-0.478
		c0.016-0.07,0.054-0.155,0.108-0.191c0.06-0.04,0.149-0.033,0.373-0.072c0.332,0.659,0.704,1.355,1.04,2.069
		c23.445,49.742,46.886,99.487,70.329,149.231c13.82,29.323,27.652,58.639,41.44,87.978c0.683,1.454,1.496,2.15,3.074,2.432
		c21.955,3.935,43.895,7.965,65.84,11.96c0.727,0.133,1.477,0.127,2.527,0.21c0-1.432,0-2.634,0-3.836
		c0.001-104.049,0.001-208.098,0.001-312.147c0-19.163,0.002-38.325-0.01-57.488
		C1667.299,484.351,1667.172,483.334,1667.096,482.211z"/>
	<path fill="#58C5C8" d="M1858.607,456.421c12.388-0.775,24.774-1.574,37.162-2.358c8.31-0.526,16.621-1.037,24.93-1.564
		c12.234-0.775,24.467-1.562,36.7-2.336c8.464-0.536,16.929-1.05,25.392-1.589c11.772-0.75,23.543-1.527,35.315-2.271
		c8.772-0.554,17.546-1.069,26.318-1.619c0.9-0.057,1.793-0.233,2.722-0.358c0-18.281,0-36.344,0-54.639
		c-51.751,4.384-103.339,8.754-155.267,13.152c0-5.326,0-10.356,0-15.386c0-5.056,0-10.112,0-15.168c0-4.975,0-9.949,0-14.924
		c0-5.056-0.038-10.112,0.011-15.168c0.049-5.009-0.224-10.032,0.184-15.131c10.738-1.239,21.23-2.439,31.718-3.664
		c10.494-1.226,20.985-2.49,31.48-3.712c10.495-1.223,21-2.363,31.489-3.634c10.448-1.266,20.923-2.313,31.278-3.74
		c0.512-5.266,0.298-52.031-0.286-54.025c-41.805,5.769-83.653,11.543-125.476,17.314c-0.485-2.009-0.579-66.181-0.105-69.104
		c50.689-8.469,101.466-16.953,152.25-25.439c0-18.342,0-36.401,0-54.705c-73.059,13.781-145.925,27.525-218.937,41.297
		c0,97.072,0,193.831,0,290.816c2.073-0.138,3.976-0.273,5.879-0.389C1840.446,457.524,1849.528,456.988,1858.607,456.421z"/>
	<path fill="#58C5C8" d="M1574.491,427.854c0.364-0.727,0.701-1.447,1.077-2.142c25.311-46.754,50.625-93.507,75.941-140.259
		c10.494-19.38,20.993-38.757,31.486-58.137c0.647-1.194,1.264-2.337,1.253-3.848c-0.063-9.051-0.028-18.102-0.042-27.153
		c-0.001-0.604-0.141-1.208-0.239-1.993c-57.946,10.931-115.696,21.825-173.489,32.727c0,14.942,0,29.664,0,44.563
		c33.661-5.595,67.161-11.163,101.052-16.797c-0.506,1.093-0.775,1.75-1.103,2.372c-15.681,29.759-31.363,59.516-47.052,89.269
		c-17.942,34.024-35.896,68.04-53.807,102.082c-0.535,1.016-0.897,2.281-0.908,3.434c-0.077,8.152-0.044,16.306-0.032,24.46
		c0.001,0.62,0.117,1.24,0.19,1.96c0.62,0,1.073,0.024,1.523-0.004c9.616-0.603,19.233-1.214,28.849-1.818
		c5.77-0.363,11.541-0.709,17.311-1.077c12-0.766,24-1.55,36.001-2.31c8.616-0.545,17.235-1.047,25.851-1.596
		c11.616-0.74,23.229-1.522,34.846-2.257c9.001-0.57,18.005-1.087,27.007-1.649c1.904-0.119,3.802-0.333,5.822-0.515
		c0-16.094,0-32.025,0-48.302c-18.734,1.582-37.31,2.972-55.851,4.771C1614.928,425.117,1576.088,428.345,1574.491,427.854z"/>
	<path fill="#58C5C8" d="M1487.374,420.415c6.17-16.377,8.881-33.528,9.879-51.025c0.776-13.613,0.55-27.216-0.865-40.782
		c-1.238-11.867-3.455-23.503-7.475-34.698c-3.677-10.238-8.706-19.619-15.964-27.529c-10.788-11.76-24.225-17.914-39.283-20.531
		c-12.59-2.188-25.2-1.713-37.77,0.133c-16.059,2.357-31.722,6.538-47.057,12.078c-5.528,1.997-10.989,4.202-16.485,6.314
		c0,74.98,0,149.729,0,224.814c2.235,0.1,4.224,0.192,6.213,0.277c18.734,0.804,37.449,0.778,56.104-1.546
		c11.741-1.463,23.223-4.136,34.361-8.378C1456.765,468.977,1476.423,449.484,1487.374,420.415z M1448.29,377.821
		c-0.736,12.408-2.622,24.639-7.333,36.156c-1.523,3.724-3.312,7.373-5.359,10.803c-6.857,11.489-17.008,18.116-29.207,21.609
		c-6.438,1.843-13.031,2.468-19.648,2.902c-3.384,0.222-6.777,0.306-10.166,0.439c-0.761,0.03-1.523,0.005-2.558,0.005
		c0-53.072,0-105.809,0-158.726c0.585-0.268,1.185-0.603,1.82-0.823c8.46-2.937,17.133-4.745,26.025-5.25
		c5.261-0.299,10.459,0.269,15.578,1.669c8.2,2.242,14.602,7.133,19.372,14.488c4.429,6.829,7.05,14.451,8.796,22.452
		c2.106,9.653,3.051,19.47,3.17,29.343C1448.882,361.198,1448.782,369.53,1448.29,377.821z"/>
	<path fill="#58C5C8" d="M1265.955,642.22c-0.733-1.645-0.707-2.923,0.043-4.534c7.381-15.864,14.692-31.764,22.018-47.657
		c13.504-29.295,27.004-58.592,40.502-87.89c0.316-0.687,0.586-1.398,0.982-2.348c-15.532,0.817-30.673,1.613-45.849,2.41
		c-16.642,37.456-33.208,74.74-49.802,112.086c-5.565-0.248-10.912-0.486-16.455-0.733c0-36.092,0-71.857,0-107.781
		c-4.916-0.215-35.079,1.627-36.719,2.207c0,87.458,0,174.92,0,262.578c12.199,2.219,24.312,4.421,36.743,6.682
		c0-38.097,0-75.883,0-113.641c0.483-0.125,0.702-0.244,0.912-0.227c4.688,0.365,9.373,0.759,14.062,1.107
		c0.811,0.06,1.264,0.46,1.554,1.204c0.205,0.527,0.451,1.036,0.676,1.554c17.391,40.233,34.787,80.462,52.147,120.71
		c0.634,1.471,1.376,2.203,2.988,2.485c13.069,2.293,26.115,4.728,39.169,7.112c2.033,0.371,4.072,0.705,6.482,1.119
		c-0.511-1.205-0.863-2.073-1.242-2.927C1311.441,744.559,1288.723,693.377,1265.955,642.22z"/>
	<path fill="#58C5C8" d="M1776.996,461.527c0.141-0.581,0.246-0.811,0.246-1.042c0.014-94.08,0.022-188.16,0.024-282.24
		c0-0.321-0.072-0.642-0.124-0.961c-0.012-0.075-0.066-0.15-0.117-0.208c-0.047-0.052-0.118-0.081-0.336-0.222
		c-20.139,3.827-40.432,7.572-60.599,11.473c-0.472,4.684-0.277,275.094,0.208,277.037
		C1736.478,464.089,1756.694,462.811,1776.996,461.527z"/>
	<path fill="#58C5C8" d="M1343.481,800.174c16.077,2.923,32.118,5.839,48.332,8.787c0-104.238,0-208.095,0-312.393
		c-16.26,0.841-32.243,1.668-48.332,2.5C1343.481,599.555,1343.481,699.749,1343.481,800.174z"/>
</g>
<g opacity="0.8">
	<path fill="#F15F5A" d="M2108.614,681.963c-0.216-11.49-1.134-22.918-2.5-34.315c-2.366-19.738-6.316-39.088-12.548-57.886
		c-5.595-16.875-12.935-32.828-22.652-47.5c-17.687-26.706-41.188-45.845-69.158-59.064c-22.689-10.723-46.629-16.043-71.315-17.878
		c-10.91-0.81-21.836-0.828-32.772-0.287c-13.728,0.68-27.339,2.256-40.824,5.067c-15.802,3.295-31.063,8.342-45.592,15.743
		c-20.578,10.481-38.218,24.916-52.396,43.924c-11.129,14.921-18.834,31.75-24.372,49.743
		c-7.104,23.084-10.334,46.894-11.582,71.039c-1.017,19.672-0.808,39.339,0.741,58.987c1.524,19.33,4.444,38.392,9.567,57.037
		c5.622,20.462,13.677,39.74,25.475,57.108c19.055,28.051,43.979,48.446,73.585,62.662c15.794,7.583,32.249,13.034,49.154,17.033
		c14.162,3.35,28.475,5.676,42.941,6.863c11.296,0.927,22.607,1.063,33.926,0.28c13.738-0.951,27.235-3.309,40.44-7.46
		c19.184-6.03,36.659-15.533,52.135-28.992c16.048-13.957,27.806-31.396,36.603-51.168c8.243-18.527,13.408-38.064,16.717-58.172
		c2.595-15.772,4.141-31.667,4.432-47.687c0.018-0.967,0.224-1.931,0.343-2.896c0-9.678,0-19.357,0-29.036
		C2108.841,684.06,2108.633,683.014,2108.614,681.963z M1994.016,706.097c-0.464,17.725-1.775,35.368-5.221,52.766
		c-2.7,13.631-6.695,26.782-13.116,39.011c-4.555,8.676-10.136,16.494-17.458,22.806c-8.499,7.327-18.336,11.505-29.014,13.63
		c-11.712,2.331-23.44,1.942-35.172,0.096c-10.403-1.638-20.452-4.547-30.047-9.148c-18.7-8.967-31.882-23.693-40.542-43.215
		c-6.105-13.762-9.951-28.228-12.376-43.161c-3.226-19.865-4.199-39.907-4.234-60.023c-0.063-14.284,0.465-28.537,1.985-42.735
		c1.84-17.174,4.998-34.017,11.583-49.961c4.034-9.766,9.153-18.802,16.237-26.477c9.03-9.785,20.115-15.76,32.466-19.225
		c12.947-3.632,26.136-4.32,39.448-3.155c8.62,0.754,17,2.627,25.133,5.757c16.81,6.469,29.382,18.206,38.423,34.397
		c7.489,13.411,12.284,27.896,15.514,43.017c2.671,12.5,4.229,25.166,5.207,37.932
		C1994.048,674.285,1994.433,690.182,1994.016,706.097z"/>
	<path fill="#F15F5A" d="M1220.822,489.151c10.521,4.841,21.62,6.887,33.004,7.395c16.128,0.719,32.033-1.239,47.8-4.687
		c3.241-0.709,6.472-1.472,9.699-2.209c0-36.309,0-72.356,0-108.592c-12.068,1.504-23.95,2.985-36.056,4.494
		c0,24.36,0,48.435,0,72.601c-8.391,1.295-16.534,1.955-24.749,0.691c-12.118-1.865-21.231-8.207-26.796-19.901
		c-0.8-1.681-1.549-3.398-2.205-5.147c-3.615-9.643-4.889-19.782-5.546-30.036c-0.693-10.822-0.521-21.638,0.458-32.435
		c0.801-8.836,2.281-17.524,5.116-25.918c5.286-15.654,15.119-26.652,29.792-32.76c9.598-3.995,19.589-6.092,29.826-7.012
		c7.672-0.689,15.335-0.5,22.987,0.388c0.896,0.104,1.812,0.014,2.846,0.014c0-12.633,0-25.143,0-37.729
		c-0.513-0.147-0.945-0.348-1.388-0.384c-2.472-0.204-4.946-0.445-7.423-0.532c-7.765-0.272-15.488,0.233-23.188,1.362
		c-11.398,1.672-22.521,4.449-33.246,8.901c-16.214,6.731-30.055,16.899-40.722,31.615c-8.889,12.263-14.22,26.235-17.501,41.167
		c-2.091,9.52-3.29,19.176-3.853,28.93c-0.117,2.022-0.566,4.023-0.862,6.033c0,6.233,0,12.467,0,18.701
		c0.182,0.786,0.457,1.563,0.533,2.361c0.493,5.218,0.834,10.455,1.429,15.66c1.223,10.698,3.474,21.136,7.363,31.14
		C1194.564,469.787,1205.234,481.979,1220.822,489.151z"/>
	<path fill="#F15F5A" d="M1676.643,482.006c-22.148,1.16-44.018,2.305-66.094,3.461c0,80.351,0,160.345,0,240.34
		c-0.153,0.054-0.306,0.107-0.46,0.16c-0.359-0.664-0.741-1.316-1.075-1.995c-4.039-8.219-8.07-16.443-12.105-24.665
		c-22.783-46.417-45.566-92.834-68.348-139.251c-10.855-22.117-21.727-44.224-32.521-66.374c-0.851-1.746-1.774-2.224-3.6-2.09
		c-6.727,0.493-13.469,0.765-20.206,1.106c-10.608,0.537-21.217,1.06-31.825,1.6c-0.446,0.023-0.886,0.161-1.306,0.241
		c-0.096,0.338-0.218,0.569-0.218,0.8c-0.021,106.865-0.034,213.729-0.04,320.594c0,0.486,0.092,0.973,0.153,1.458
		c0.009,0.07,0.085,0.132,0.134,0.194c0.05,0.062,0.105,0.118,0.245,0.275c17.043,3.096,34.185,6.211,51.202,9.302
		c0.219-0.369,0.27-0.435,0.298-0.509c0.028-0.074,0.036-0.157,0.048-0.237c0.013-0.081,0.028-0.162,0.028-0.244
		c0.006-73.157,0.012-146.314,0.017-219.471c0-0.164-0.005-0.329,0.009-0.492c0.014-0.162,0.04-0.323,0.076-0.481
		c0.016-0.071,0.055-0.156,0.108-0.192c0.06-0.04,0.149-0.033,0.375-0.072c0.334,0.662,0.708,1.362,1.046,2.081
		c23.58,50.03,47.157,100.063,70.736,150.093c13.9,29.492,27.812,58.978,41.68,88.487c0.688,1.463,1.504,2.162,3.092,2.446
		c22.082,3.958,44.149,8.011,66.221,12.029c0.731,0.133,1.485,0.128,2.542,0.212c0-1.44,0-2.65,0-3.859
		c0.001-104.651,0.001-209.301,0.001-313.952c0-19.273,0.002-38.547-0.01-57.82C1676.847,484.159,1676.719,483.137,1676.643,482.006
		z"/>
	<path fill="#F15F5A" d="M1869.261,456.068c12.459-0.779,24.918-1.583,37.377-2.371c8.358-0.529,16.717-1.043,25.074-1.573
		c12.304-0.779,24.608-1.571,36.912-2.349c8.513-0.539,17.027-1.056,25.539-1.598c11.84-0.755,23.679-1.536,35.519-2.284
		c8.823-0.558,17.647-1.075,26.47-1.629c0.905-0.057,1.803-0.234,2.738-0.36c0-18.386,0-36.554,0-54.955
		c-52.05,4.409-103.936,8.804-156.165,13.228c0-5.357,0-10.416,0-15.475c0-5.085,0-10.17,0-15.256c0-5.003,0-10.006,0-15.01
		c0-5.085-0.038-10.171,0.012-15.256c0.049-5.038-0.225-10.09,0.185-15.218c10.8-1.247,21.352-2.453,31.902-3.685
		c10.555-1.233,21.106-2.505,31.662-3.734c10.556-1.23,21.121-2.377,31.671-3.655c10.509-1.273,21.044-2.327,31.459-3.762
		c0.515-5.296,0.299-52.332-0.288-54.337c-42.046,5.802-84.136,11.61-126.201,17.414c-0.488-2.021-0.582-66.564-0.106-69.503
		c50.982-8.518,102.053-17.051,153.131-25.586c0-18.448,0-36.612,0-55.022c-73.482,13.861-146.769,27.684-220.203,41.536
		c0,97.634,0,194.952,0,292.497c2.085-0.139,3.999-0.274,5.913-0.391C1850.995,457.177,1860.129,456.638,1869.261,456.068z"/>
	<path fill="#F15F5A" d="M1583.502,427.336c0.366-0.731,0.705-1.455,1.083-2.155c25.458-47.025,50.918-94.048,76.38-141.07
		c10.555-19.492,21.114-38.981,31.668-58.473c0.651-1.201,1.271-2.351,1.261-3.87c-0.063-9.103-0.028-18.206-0.042-27.31
		c-0.001-0.607-0.142-1.215-0.24-2.005c-58.281,10.994-116.365,21.951-174.492,32.917c0,15.028,0,29.836,0,44.82
		c33.855-5.627,67.549-11.228,101.636-16.894c-0.509,1.099-0.779,1.76-1.109,2.385c-15.771,29.931-31.544,59.86-47.325,89.785
		c-18.045,34.22-36.104,68.433-54.118,102.672c-0.538,1.022-0.902,2.294-0.913,3.454c-0.077,8.2-0.044,16.401-0.032,24.601
		c0.001,0.624,0.118,1.247,0.191,1.971c0.623,0,1.079,0.024,1.532-0.004c9.672-0.606,19.344-1.22,29.016-1.828
		c5.804-0.365,11.608-0.713,17.411-1.084c12.07-0.77,24.139-1.559,36.209-2.323c8.666-0.548,17.335-1.053,26.001-1.605
		c11.683-0.744,23.364-1.531,35.047-2.27c9.053-0.573,18.109-1.093,27.163-1.658c1.915-0.12,3.824-0.335,5.855-0.517
		c0-16.187,0-32.21,0-48.581c-18.842,1.591-37.526,2.989-56.174,4.799C1624.173,424.582,1585.109,427.829,1583.502,427.336z"/>
	<path fill="#F15F5A" d="M1495.882,419.853c6.205-16.471,8.933-33.722,9.936-51.32c0.781-13.692,0.553-27.373-0.87-41.018
		c-1.245-11.936-3.475-23.639-7.518-34.899c-3.698-10.297-8.757-19.732-16.056-27.688c-10.85-11.828-24.365-18.017-39.51-20.649
		c-12.663-2.201-25.346-1.722-37.988,0.133c-16.152,2.371-31.906,6.576-47.329,12.148c-5.56,2.009-11.052,4.226-16.58,6.351
		c0,75.413,0,150.595,0,226.114c2.248,0.101,4.248,0.193,6.249,0.279c18.842,0.809,37.665,0.783,56.428-1.555
		c11.809-1.471,23.358-4.16,34.559-8.427C1465.095,468.697,1484.867,449.09,1495.882,419.853z M1456.572,377.013
		c-0.74,12.48-2.637,24.781-7.375,36.365c-1.532,3.746-3.331,7.416-5.39,10.866c-6.896,11.555-17.106,18.221-29.375,21.734
		c-6.475,1.854-13.106,2.483-19.761,2.919c-3.404,0.223-6.816,0.308-10.224,0.441c-0.765,0.03-1.532,0.005-2.573,0.005
		c0-53.379,0-106.421,0-159.644c0.589-0.269,1.191-0.606,1.83-0.828c8.509-2.954,17.232-4.773,26.176-5.28
		c5.291-0.301,10.519,0.271,15.667,1.678c8.248,2.255,14.686,7.174,19.484,14.572c4.454,6.868,7.091,14.534,8.846,22.582
		c2.118,9.708,3.068,19.582,3.189,29.513C1457.167,360.293,1457.066,368.675,1456.572,377.013z"/>
	<path fill="#F15F5A" d="M1273.182,642.941c-0.737-1.655-0.711-2.94,0.043-4.56c7.423-15.956,14.777-31.948,22.145-47.932
		c13.582-29.464,27.16-58.93,40.736-88.398c0.318-0.691,0.589-1.406,0.987-2.361c-15.622,0.821-30.851,1.622-46.114,2.424
		c-16.739,37.672-33.4,75.172-50.09,112.735c-5.597-0.249-10.975-0.489-16.55-0.737c0-36.301,0-72.273,0-108.404
		c-4.944-0.216-35.281,1.636-36.931,2.219c0,87.964,0,175.932,0,264.097c12.27,2.231,24.453,4.447,36.956,6.72
		c0-38.317,0-76.321,0-114.298c0.485-0.126,0.706-0.245,0.917-0.229c4.715,0.367,9.427,0.764,14.143,1.113
		c0.816,0.06,1.271,0.463,1.563,1.211c0.207,0.53,0.454,1.042,0.679,1.563c17.492,40.465,34.989,80.928,52.449,121.408
		c0.638,1.479,1.384,2.216,3.005,2.5c13.144,2.306,26.266,4.755,39.395,7.153c2.045,0.374,4.096,0.709,6.519,1.126
		c-0.514-1.212-0.868-2.085-1.25-2.944C1318.931,745.871,1296.081,694.394,1273.182,642.941z"/>
	<path fill="#F15F5A" d="M1787.178,461.203c0.141-0.584,0.247-0.816,0.247-1.048c0.015-94.624,0.022-189.248,0.024-283.872
		c0-0.322-0.073-0.646-0.124-0.966c-0.012-0.075-0.066-0.151-0.118-0.209c-0.048-0.053-0.119-0.081-0.338-0.223
		c-20.255,3.849-40.666,7.615-60.949,11.54c-0.475,4.711-0.279,276.685,0.209,278.639
		C1746.426,463.78,1766.758,462.495,1787.178,461.203z"/>
	<path fill="#F15F5A" d="M1351.156,801.808c16.17,2.94,32.304,5.873,48.612,8.838c0-104.841,0-209.298,0-314.199
		c-16.354,0.846-32.429,1.677-48.612,2.514C1351.156,600.029,1351.156,700.803,1351.156,801.808z"/>
</g>
<g>
	<path fill="#4C4C4D" d="M2096.586,679.837c-0.213-11.341-1.12-22.621-2.468-33.871c-2.335-19.483-6.234-38.583-12.385-57.137
		c-5.523-16.657-12.768-32.404-22.359-46.885c-17.458-26.36-40.655-45.252-68.263-58.3c-22.395-10.585-46.026-15.836-70.393-17.646
		c-10.769-0.8-21.553-0.818-32.349-0.283c-13.55,0.671-26.985,2.226-40.296,5.002c-15.598,3.252-30.661,8.235-45.002,15.539
		c-20.312,10.345-37.723,24.594-51.718,43.356c-10.985,14.728-18.59,31.34-24.057,49.1c-7.013,22.786-10.2,46.287-11.433,70.12
		c-1.004,19.418-0.797,38.83,0.732,58.224c1.504,19.08,4.387,37.895,9.443,56.3c5.55,20.197,13.5,39.226,25.145,56.369
		c18.808,27.689,43.41,47.819,72.633,61.852c15.589,7.485,31.832,12.865,48.518,16.812c13.979,3.306,28.107,5.603,42.385,6.774
		c11.15,0.915,22.314,1.049,33.487,0.276c13.561-0.938,26.883-3.267,39.917-7.364c18.936-5.952,36.185-15.332,51.46-28.617
		c15.84-13.776,27.447-30.989,36.129-50.506c8.137-18.287,13.235-37.571,16.501-57.42c2.561-15.568,4.088-31.257,4.375-47.07
		c0.017-0.955,0.222-1.906,0.339-2.859c0-9.553,0-19.107,0-28.66C2096.811,681.906,2096.605,680.874,2096.586,679.837z
		 M1983.471,703.658c-0.458,17.496-1.752,34.91-5.153,52.084c-2.665,13.454-6.609,26.436-12.947,38.507
		c-4.496,8.564-10.005,16.281-17.232,22.511c-8.389,7.233-18.099,11.357-28.639,13.454c-11.561,2.3-23.137,1.917-34.717,0.094
		c-10.269-1.616-20.187-4.488-29.658-9.03c-18.458-8.851-31.469-23.387-40.017-42.656c-6.026-13.584-9.822-27.863-12.216-42.602
		c-3.185-19.608-4.145-39.391-4.179-59.246c-0.063-14.099,0.459-28.168,1.96-42.182c1.816-16.952,4.933-33.577,11.433-49.314
		c3.982-9.64,9.035-18.558,16.026-26.135c8.913-9.659,19.854-15.556,32.046-18.976c12.78-3.585,25.798-4.264,38.938-3.114
		c8.509,0.744,16.781,2.593,24.807,5.682c16.593,6.386,29.002,17.971,37.926,33.952c7.392,13.238,12.125,27.535,15.314,42.46
		c2.636,12.338,4.174,24.841,5.139,37.441C1983.502,672.258,1983.882,687.949,1983.471,703.658z"/>
	<path fill="#4C4C4D" d="M1220.279,489.518c10.385,4.778,21.341,6.798,32.577,7.299c15.919,0.71,31.618-1.223,47.182-4.626
		c3.199-0.699,6.388-1.453,9.573-2.18c0-35.84,0-71.42,0-107.188c-11.912,1.485-23.64,2.947-35.59,4.436c0,24.044,0,47.808,0,71.662
		c-8.282,1.278-16.32,1.93-24.429,0.682c-11.961-1.841-20.956-8.101-26.449-19.643c-0.79-1.66-1.529-3.354-2.176-5.081
		c-3.568-9.519-4.825-19.526-5.474-29.647c-0.684-10.682-0.514-21.358,0.452-32.015c0.79-8.722,2.252-17.298,5.05-25.583
		c5.217-15.452,14.924-26.308,29.406-32.336c9.474-3.943,19.336-6.013,29.44-6.921c7.573-0.681,15.136-0.493,22.69,0.383
		c0.884,0.102,1.789,0.014,2.81,0.014c0-12.469,0-24.817,0-37.241c-0.507-0.145-0.932-0.343-1.37-0.379
		c-2.44-0.201-4.882-0.439-7.327-0.525c-7.664-0.268-15.287,0.23-22.888,1.344c-11.25,1.65-22.23,4.391-32.816,8.786
		c-16.005,6.644-29.666,16.68-40.196,31.206c-8.774,12.105-14.036,25.896-17.274,40.634c-2.064,9.397-3.247,18.928-3.803,28.556
		c-0.115,1.996-0.559,3.971-0.851,5.955c0,6.153,0,12.306,0,18.459c0.18,0.776,0.451,1.543,0.526,2.33
		c0.487,5.151,0.823,10.32,1.411,15.458c1.207,10.559,3.429,20.862,7.268,30.737
		C1194.361,470.405,1204.892,482.439,1220.279,489.518z"/>
	<path fill="#4C4C4D" d="M1670.203,482.466c-21.861,1.145-43.448,2.275-65.239,3.416c0,79.311,0,158.271,0,237.231
		c-0.151,0.053-0.302,0.105-0.454,0.158c-0.355-0.656-0.732-1.299-1.061-1.969c-3.987-8.113-7.966-16.231-11.949-24.346
		c-22.488-45.817-44.977-91.633-67.464-137.45c-10.715-21.831-21.446-43.652-32.101-65.515c-0.84-1.724-1.751-2.195-3.553-2.063
		c-6.64,0.486-13.295,0.755-19.945,1.092c-10.471,0.53-20.943,1.046-31.413,1.58c-0.44,0.023-0.875,0.159-1.289,0.238
		c-0.094,0.334-0.215,0.562-0.215,0.79c-0.021,105.482-0.033,210.964-0.039,316.447c0,0.48,0.091,0.96,0.151,1.439
		c0.009,0.069,0.084,0.131,0.132,0.191c0.049,0.061,0.104,0.117,0.242,0.271c16.822,3.056,33.743,6.13,50.54,9.181
		c0.216-0.364,0.266-0.429,0.294-0.503c0.028-0.073,0.036-0.155,0.048-0.234c0.012-0.08,0.028-0.16,0.028-0.241
		c0.006-72.211,0.011-144.422,0.017-216.632c0-0.162-0.005-0.324,0.009-0.485c0.013-0.16,0.04-0.319,0.075-0.475
		c0.016-0.07,0.054-0.154,0.107-0.189c0.06-0.04,0.148-0.032,0.37-0.071c0.33,0.654,0.698,1.345,1.033,2.054
		c23.275,49.383,46.547,98.768,69.821,148.152c13.72,29.111,27.452,58.215,41.141,87.342c0.679,1.444,1.485,2.134,3.052,2.415
		c21.796,3.907,43.577,7.908,65.364,11.873c0.722,0.132,1.466,0.126,2.509,0.209c0-1.422,0-2.615,0-3.809
		c0.001-103.297,0.001-206.594,0.001-309.891c0-19.024,0.002-38.048-0.01-57.072
		C1670.405,484.591,1670.278,483.582,1670.203,482.466z"/>
	<path fill="#4C4C4D" d="M1860.33,456.863c12.298-0.769,24.595-1.563,36.893-2.341c8.25-0.522,16.5-1.03,24.75-1.552
		c12.145-0.769,24.29-1.55,36.435-2.319c8.403-0.532,16.807-1.042,25.209-1.578c11.687-0.745,23.372-1.516,35.059-2.254
		c8.708-0.55,17.419-1.061,26.127-1.607c0.893-0.056,1.78-0.231,2.702-0.355c0-18.148,0-36.081,0-54.244
		c-51.377,4.352-102.592,8.69-154.145,13.057c0-5.288,0-10.281,0-15.275c0-5.02,0-10.039,0-15.059c0-4.939,0-9.877,0-14.816
		c0-5.019-0.038-10.039,0.011-15.058c0.049-4.973-0.222-9.959,0.183-15.021c10.661-1.23,21.076-2.422,31.489-3.638
		c10.418-1.217,20.833-2.472,31.252-3.686c10.419-1.214,20.848-2.346,31.262-3.608c10.373-1.257,20.772-2.297,31.052-3.713
		c0.508-5.228,0.295-51.655-0.284-53.634c-41.503,5.727-83.048,11.46-124.569,17.189c-0.482-1.995-0.575-65.703-0.104-68.604
		c50.323-8.408,100.733-16.831,151.15-25.255c0-18.209,0-36.138,0-54.31c-72.531,13.681-144.871,27.326-217.355,40.999
		c0,96.371,0,192.43,0,288.714c2.058-0.137,3.947-0.271,5.837-0.386C1842.3,457.958,1851.316,457.426,1860.33,456.863z"/>
	<path fill="#4C4C4D" d="M1578.267,428.503c0.362-0.722,0.696-1.436,1.07-2.127c25.128-46.416,50.259-92.831,75.392-139.245
		c10.418-19.24,20.841-38.477,31.259-57.716c0.642-1.186,1.255-2.32,1.244-3.82c-0.063-8.985-0.027-17.971-0.042-26.956
		c-0.001-0.6-0.14-1.199-0.237-1.979c-57.527,10.852-114.859,21.667-172.234,32.491c0,14.834,0,29.45,0,44.241
		c33.417-5.555,66.675-11.083,100.321-16.675c-0.502,1.085-0.769,1.737-1.095,2.355c-15.567,29.543-31.136,59.086-46.712,88.624
		c-17.812,33.778-35.637,67.548-53.418,101.344c-0.531,1.009-0.891,2.265-0.901,3.41c-0.076,8.094-0.044,16.188-0.031,24.283
		c0.001,0.616,0.117,1.231,0.189,1.946c0.615,0,1.065,0.024,1.512-0.004c9.547-0.598,19.094-1.205,28.64-1.805
		c5.729-0.36,11.458-0.704,17.186-1.07c11.914-0.76,23.826-1.539,35.741-2.293c8.554-0.541,17.111-1.04,25.664-1.584
		c11.532-0.735,23.062-1.511,34.594-2.241c8.936-0.566,17.875-1.079,26.812-1.637c1.89-0.118,3.775-0.331,5.779-0.511
		c0-15.978,0-31.793,0-47.953c-18.598,1.57-37.04,2.95-55.447,4.737C1618.412,425.785,1579.853,428.99,1578.267,428.503z"/>
	<path fill="#4C4C4D" d="M1491.78,421.117c6.125-16.258,8.817-33.286,9.807-50.657c0.771-13.515,0.546-27.019-0.858-40.487
		c-1.229-11.781-3.43-23.334-7.421-34.447c-3.65-10.164-8.643-19.477-15.848-27.33c-10.71-11.675-24.05-17.784-38.999-20.382
		c-12.499-2.172-25.018-1.7-37.497,0.132c-15.943,2.34-31.493,6.491-46.716,11.991c-5.488,1.983-10.909,4.172-16.366,6.268
		c0,74.438,0,148.647,0,223.189c2.219,0.099,4.193,0.191,6.168,0.275c18.599,0.798,37.178,0.773,55.698-1.535
		c11.656-1.452,23.055-4.106,34.112-8.318C1461.392,469.329,1480.908,449.976,1491.78,421.117z M1452.979,378.831
		c-0.731,12.318-2.603,24.461-7.28,35.895c-1.512,3.697-3.288,7.32-5.32,10.725c-6.807,11.405-16.885,17.985-28.995,21.453
		c-6.391,1.83-12.937,2.451-19.505,2.881c-3.36,0.22-6.728,0.304-10.092,0.435c-0.755,0.03-1.512,0.005-2.54,0.005
		c0-52.689,0-105.044,0-157.579c0.581-0.266,1.176-0.599,1.807-0.817c8.399-2.915,17.009-4.711,25.837-5.212
		c5.223-0.297,10.383,0.267,15.465,1.656c8.141,2.225,14.496,7.081,19.232,14.384c4.397,6.78,6.999,14.346,8.732,22.29
		c2.091,9.583,3.029,19.329,3.147,29.131C1453.566,362.328,1453.467,370.6,1452.979,378.831z"/>
	<path fill="#4C4C4D" d="M1271.961,641.319c-0.727-1.633-0.702-2.902,0.042-4.501c7.327-15.749,14.586-31.534,21.859-47.312
		c13.406-29.083,26.809-58.168,40.209-87.254c0.314-0.682,0.582-1.388,0.975-2.331c-15.42,0.811-30.451,1.601-45.517,2.393
		c-16.522,37.185-32.968,74.2-49.442,111.276c-5.525-0.246-10.833-0.483-16.336-0.728c0-35.831,0-71.338,0-107.002
		c-4.88-0.213-34.825,1.615-36.453,2.191c0,86.826,0,173.656,0,260.681c12.111,2.203,24.136,4.389,36.478,6.633
		c0-37.822,0-75.334,0-112.82c0.479-0.124,0.697-0.242,0.905-0.226c4.654,0.362,9.305,0.754,13.96,1.099
		c0.806,0.059,1.255,0.457,1.542,1.195c0.204,0.523,0.448,1.028,0.671,1.543c17.265,39.942,34.536,79.881,51.77,119.838
		c0.63,1.46,1.366,2.187,2.967,2.468c12.974,2.276,25.926,4.694,38.885,7.061c2.018,0.369,4.043,0.699,6.435,1.111
		c-0.507-1.196-0.857-2.058-1.233-2.906C1317.118,742.918,1294.564,692.106,1271.961,641.319z"/>
	<path fill="#4C4C4D" d="M1779.308,461.933c0.14-0.576,0.244-0.805,0.244-1.034c0.014-93.4,0.022-186.8,0.024-280.2
		c0-0.318-0.072-0.637-0.123-0.954c-0.012-0.074-0.065-0.149-0.117-0.206c-0.047-0.052-0.117-0.08-0.333-0.22
		c-19.993,3.8-40.14,7.517-60.161,11.39c-0.469,4.65-0.276,273.105,0.206,275.034
		C1739.083,464.476,1759.153,463.207,1779.308,461.933z"/>
	<path fill="#4C4C4D" d="M1348.927,798.131c15.961,2.902,31.886,5.797,47.983,8.724c0-103.484,0-206.591,0-310.135
		c-16.143,0.835-32.01,1.656-47.983,2.482C1348.927,598.962,1348.927,698.432,1348.927,798.131z"/>
</g>
</svg>
